<svg xmlns="http://www.w3.org/2000/svg" viewBox="0 0 32 32" fill="none">
  <!-- Dark blue-black background (oklch ~0.09 0.04 240) -->
  <rect width="32" height="32" rx="7" fill="#0B0E18"/>
  <!-- Subtle teal border -->
  <rect x="0.75" y="0.75" width="30.5" height="30.5" rx="6.25" stroke="#4ADCD2" stroke-opacity="0.25" stroke-width="1.5"/>
  <!-- L -->
  <path d="M7.5 9h2.75v12.25H16V24H7.5V9z" fill="#4ADCD2"/>
  <!-- B -->
  <path d="M17 9h3.75c2.65 0 4.25 1.35 4.25 3.35 0 1.35-.75 2.35-1.95 2.85 1.45.45 2.45 1.55 2.45 3.3 0 2.35-1.85 3.5-4.55 3.5H17V9zm2.75 2.75v3.75h1.05c1.05 0 1.65-.55 1.65-1.5 0-.95-.6-1.5-1.65-1.5H19.75zm0 6.5v4h1.55c1.15 0 1.85-.65 1.85-1.75 0-1.1-.7-1.75-1.85-1.75H19.75z" fill="#4ADCD2"/>
</svg>
